<svg width="29" height="28" viewBox="0 0 29 28" fill="none" xmlns="http://www.w3.org/2000/svg">
<rect x="1" y="0.5" width="27" height="27" rx="3.5" fill="url(#paint0_linear_7241_1543)"/>
<rect x="1" y="0.5" width="27" height="27" rx="3.5" stroke="#222222"/>
<path d="M12.5001 17.3333V18C12.5001 18.5304 12.7108 19.0391 13.0859 19.4142C13.4609 19.7893 13.9696 20 14.5001 20C15.0305 20 15.5392 19.7893 15.9143 19.4142C16.2894 19.0391 16.5001 18.5304 16.5001 18V17.3333M13.1667 9.33333C13.1667 8.97971 13.3072 8.64057 13.5573 8.39052C13.8073 8.14048 14.1465 8 14.5001 8C14.8537 8 15.1928 8.14048 15.4429 8.39052C15.6929 8.64057 15.8334 8.97971 15.8334 9.33333C16.599 9.69535 17.2517 10.2589 17.7214 10.9635C18.1912 11.6682 18.4604 12.4874 18.5001 13.3333V15.3333C18.5503 15.7478 18.697 16.1447 18.9286 16.4921C19.1602 16.8395 19.4701 17.1276 19.8334 17.3333H9.16675C9.53004 17.1276 9.83995 16.8395 10.0715 16.4921C10.3031 16.1447 10.4499 15.7478 10.5001 15.3333V13.3333C10.5398 12.4874 10.8089 11.6682 11.2787 10.9635C11.7485 10.2589 12.4011 9.69535 13.1667 9.33333Z" stroke="white" stroke-width="1.33333" stroke-linecap="round" stroke-linejoin="round"/>
<defs>
<linearGradient id="paint0_linear_7241_1543" x1="14.5" y1="0" x2="14.5" y2="28" gradientUnits="userSpaceOnUse">
<stop stop-color="#212121"/>
<stop offset="1" stop-color="#303030"/>
</linearGradient>
</defs>
</svg>
