<svg width="158" height="40" viewBox="0 0 158 40" fill="none" xmlns="http://www.w3.org/2000/svg">
<path d="M21.4758 5.86095C18.8723 3.25745 14.6512 3.25745 12.0477 5.86095L2.61961 15.289C0.0161184 17.8925 0.0161184 22.1136 2.61961 24.7171L12.0477 34.1452C14.6512 36.7487 18.8723 36.7487 21.4758 34.1452L25.9744 29.6466C22.2294 28.2019 19.5726 24.568 19.5726 20.3136C19.5726 15.8896 22.4454 12.1366 26.4271 10.8183C26.3493 10.7364 26.2702 10.6553 26.1898 10.575L21.4758 5.86095Z" fill="#AAAAAA"/>
<path d="M25.9746 29.6498C27.091 30.0805 28.3042 30.3166 29.5724 30.3166C35.0953 30.3166 39.5724 25.8394 39.5724 20.3166C39.5724 14.7937 35.0953 10.3166 29.5724 10.3166C28.4737 10.3166 27.4164 10.4938 26.4274 10.8211C31.396 16.0445 31.317 24.3075 26.1903 29.4342L25.9746 29.6498Z" fill="#AAAAAA"/>
<path d="M58.6725 27.5L57.4575 24.035H51.18L49.9425 27.5H46.5L52.575 11.345H56.31L62.34 27.5H58.6725ZM54.3525 15.08L52.1475 21.3125H56.5125L54.3525 15.08Z" fill="#AAAAAA"/>
<path d="M66.288 27.5H63.138V11.345H66.288V27.5Z" fill="#AAAAAA"/>
<path d="M80.1851 21.4925C80.1851 25.0475 78.0926 27.725 74.8526 27.725C73.4351 27.725 72.2201 27.1175 71.3201 25.9475V31.8425H68.1926V15.485H71.0726V17.24C71.9951 15.9575 73.3226 15.26 74.8526 15.26C78.0926 15.26 80.1851 17.96 80.1851 21.4925ZM76.9676 21.4925C76.9676 19.2425 75.6851 18.0275 74.1551 18.0275C72.6251 18.0275 71.3426 19.22 71.3426 21.4925C71.3426 23.765 72.6251 24.935 74.1551 24.935C75.6851 24.935 76.9676 23.7875 76.9676 21.4925Z" fill="#AAAAAA"/>
<path d="M84.4167 20.9525V27.5H81.2892V11.345H84.4167V17.06C85.2492 15.9575 86.2842 15.26 87.8592 15.26C90.2667 15.26 91.9317 16.835 91.9317 19.7375V27.5H88.8267V20.795C88.8267 19.0175 88.1292 18.0275 86.7117 18.0275C85.4742 18.0275 84.4167 19.0175 84.4167 20.9525Z" fill="#AAAAAA"/>
<path d="M100.882 27.5V26.015C100.094 27.14 98.9016 27.725 97.2591 27.725C94.7616 27.725 93.0966 26.2625 93.0966 24.0125C93.0966 21.6725 94.9866 20.4125 98.4966 20.4125C99.1716 20.4125 99.7566 20.4575 100.499 20.5475V19.8275C100.499 18.4775 99.7341 17.69 98.4291 17.69C97.0791 17.69 96.2691 18.4775 96.1566 19.8275H93.3441C93.5241 17.06 95.5266 15.26 98.4291 15.26C101.579 15.26 103.424 16.9925 103.424 19.94V27.5H100.882ZM96.0441 23.9225C96.0441 24.935 96.7641 25.565 97.9341 25.565C99.5316 25.565 100.499 24.6875 100.499 23.2925V22.4375C99.7566 22.325 99.2391 22.28 98.6991 22.28C96.9216 22.28 96.0441 22.8425 96.0441 23.9225Z" fill="#AAAAAA"/>
<path d="M116.631 27.5L113.616 16.205L110.601 27.5H107.136L102.996 11.345H106.326L108.936 22.3025L111.906 11.345H115.394L118.274 22.3475L120.906 11.345H124.259L120.096 27.5H116.631Z" fill="#AAAAAA"/>
<path d="M131.272 27.5V26.015C130.484 27.14 129.292 27.725 127.649 27.725C125.152 27.725 123.487 26.2625 123.487 24.0125C123.487 21.6725 125.377 20.4125 128.887 20.4125C129.562 20.4125 130.147 20.4575 130.889 20.5475V19.8275C130.889 18.4775 130.124 17.69 128.819 17.69C127.469 17.69 126.659 18.4775 126.547 19.8275H123.734C123.914 17.06 125.917 15.26 128.819 15.26C131.969 15.26 133.814 16.9925 133.814 19.94V27.5H131.272ZM126.434 23.9225C126.434 24.935 127.154 25.565 128.324 25.565C129.922 25.565 130.889 24.6875 130.889 23.2925V22.4375C130.147 22.325 129.629 22.28 129.089 22.28C127.312 22.28 126.434 22.8425 126.434 23.9225Z" fill="#AAAAAA"/>
<path d="M146.014 15.485L141.604 27.5H138.184L133.752 15.485H137.127L139.984 23.945L142.864 15.485H146.014Z" fill="#AAAAAA"/>
<path d="M151.289 27.7025C147.689 27.7025 145.282 25.205 145.282 21.4475C145.282 17.87 147.779 15.26 151.244 15.26C155.046 15.26 157.567 18.3425 157.004 22.2575H148.477C148.679 24.215 149.624 25.295 151.221 25.295C152.594 25.295 153.517 24.62 153.877 23.4275H156.982C156.307 26.15 154.214 27.7025 151.289 27.7025ZM151.177 17.555C149.714 17.555 148.792 18.5 148.522 20.2775H153.697C153.606 18.6125 152.662 17.555 151.177 17.555Z" fill="#AAAAAA"/>
</svg>
