<svg width="158" height="40" viewBox="0 0 158 40" fill="none" xmlns="http://www.w3.org/2000/svg">
<path d="M0.833496 13.2484L15.2881 13.2484L1.07032 27.4662L3.36729 29.7632L17.5851 15.5454V30H17.6771L20.8335 26.8436L20.8335 13.5404L17.2931 10L3.98812 10L0.833496 13.1546L0.833496 13.2484Z" fill="#AAAAAA"/>
<path d="M40.217 21.3033H42.9687V23.86H40.217V27.5H37.162V23.86H29.167V21.6283L37.4437 11.8133H40.217V21.3033ZM33.067 21.3033H37.162V16.2983L33.067 21.3033Z" fill="#AAAAAA"/>
<path d="M50.6429 16.84C51.7118 16.84 52.6651 17.0494 53.5029 17.4683C54.3551 17.8872 55.0196 18.5083 55.4962 19.3317C55.9873 20.155 56.2329 21.1444 56.2329 22.3C56.2329 24.0189 55.6912 25.3622 54.6079 26.33C53.5246 27.2833 52.0007 27.76 50.0362 27.76C48.6784 27.76 47.5373 27.5361 46.6129 27.0883C45.7029 26.6406 45.0096 26.0483 44.5329 25.3117C44.0707 24.575 43.8034 23.7661 43.7312 22.885H46.8512C47.3134 24.5606 48.3679 25.3983 50.0146 25.3983C51.0257 25.3983 51.7912 25.1167 52.3112 24.5533C52.8457 23.99 53.1129 23.2317 53.1129 22.2783C53.1129 21.3106 52.8457 20.5594 52.3112 20.025C51.7768 19.4761 51.0184 19.2017 50.0362 19.2017C48.7362 19.2017 47.7396 19.7433 47.0462 20.8267L44.2296 20.545L45.2912 11.8133H55.3229V14.37H47.8262L47.3496 17.9667C48.1296 17.2156 49.2273 16.84 50.6429 16.84Z" fill="#AAAAAA"/>
<path d="M68.2589 11.8133C70.44 11.8133 72.4117 12.3333 74.1739 13.3733C75.9506 14.3989 76.8389 16.4933 76.8389 19.6567C76.8389 22.82 75.9506 24.9217 74.1739 25.9617C72.4117 26.9872 70.44 27.5 68.2589 27.5H62.9722V11.8133H68.2589ZM68.1506 24.77C69.1472 24.7556 70.0356 24.64 70.8156 24.4233C71.61 24.1922 72.2817 23.7011 72.8306 22.95C73.3939 22.1989 73.6756 21.1011 73.6756 19.6567C73.6756 18.2122 73.3939 17.1144 72.8306 16.3633C72.2817 15.6122 71.61 15.1211 70.8156 14.89C70.0356 14.6589 69.1472 14.5433 68.1506 14.5433H66.0272V24.77H68.1506Z" fill="#AAAAAA"/>
<path d="M84.0075 15.5833C85.2642 15.5833 86.3403 15.865 87.2359 16.4283C88.1459 16.9772 88.8175 17.7644 89.2509 18.79C89.6986 19.8156 89.8864 21.0217 89.8142 22.4083H81.0609C81.162 23.3906 81.4725 24.1344 81.9925 24.64C82.5125 25.1456 83.1914 25.3983 84.0292 25.3983C84.7659 25.3983 85.3581 25.2178 85.8059 24.8567C86.2681 24.4956 86.5786 24.0406 86.7375 23.4917H89.7492C89.4892 24.8494 88.8464 25.9039 87.8209 26.655C86.8097 27.3917 85.5459 27.76 84.0292 27.76C82.787 27.76 81.7109 27.5072 80.8009 27.0017C79.8909 26.4961 79.1975 25.7883 78.7209 24.8783C78.2442 23.9539 78.0059 22.885 78.0059 21.6717C78.0059 20.4728 78.2514 19.4111 78.7425 18.4867C79.2336 17.5622 79.9342 16.8472 80.8442 16.3417C81.7542 15.8361 82.8086 15.5833 84.0075 15.5833ZM86.8025 20.5017C86.7159 19.7217 86.4342 19.0933 85.9575 18.6167C85.4953 18.14 84.8381 17.9017 83.9859 17.9017C83.2059 17.9017 82.5703 18.1183 82.0792 18.5517C81.5881 18.985 81.2631 19.635 81.1042 20.5017H86.8025Z" fill="#AAAAAA"/>
<path d="M102.521 15.8433V27.0233C102.521 28.54 102.037 29.7606 101.069 30.685C100.101 31.6239 98.6855 32.0933 96.8222 32.0933C95.2044 32.0933 93.9188 31.7322 92.9655 31.01C92.0122 30.3022 91.4488 29.3489 91.2755 28.15H94.2438C94.5905 29.2189 95.45 29.7533 96.8222 29.7533C97.7755 29.7533 98.4688 29.515 98.9022 29.0383C99.3355 28.5761 99.5522 27.89 99.5522 26.98V25.42C98.7433 26.6622 97.5227 27.2833 95.8905 27.2833C94.865 27.2833 93.9622 27.0522 93.1822 26.59C92.4166 26.1133 91.8172 25.4344 91.3838 24.5533C90.9649 23.6722 90.7555 22.6322 90.7555 21.4333C90.7555 20.2344 90.9649 19.1944 91.3838 18.3133C91.8172 17.4322 92.4166 16.7606 93.1822 16.2983C93.9622 15.8217 94.865 15.5833 95.8905 15.5833C97.5372 15.5833 98.7577 16.2044 99.5522 17.4467V15.8433H102.521ZM96.6922 24.9433C97.66 24.9433 98.4038 24.6183 98.9238 23.9683C99.4438 23.3183 99.7038 22.4733 99.7038 21.4333C99.7038 20.3933 99.4438 19.5483 98.9238 18.8983C98.4038 18.2483 97.66 17.9233 96.6922 17.9233C95.71 17.9233 94.9733 18.2556 94.4822 18.92C94.0055 19.57 93.7672 20.4078 93.7672 21.4333C93.7672 22.4589 94.0055 23.3039 94.4822 23.9683C94.9733 24.6183 95.71 24.9433 96.6922 24.9433Z" fill="#AAAAAA"/>
<path d="M110.621 15.7133C110.867 15.7133 111.112 15.735 111.358 15.7783V18.7467C111.098 18.7033 110.824 18.6817 110.535 18.6817C109.625 18.6817 108.946 18.8983 108.498 19.3317C108.05 19.7506 107.769 20.2489 107.653 20.8267C107.537 21.39 107.48 22.0472 107.48 22.7983V27.5H104.511V15.8433H107.436V17.8367C108.072 16.4211 109.134 15.7133 110.621 15.7133Z" fill="#AAAAAA"/>
<path d="M118 15.5833C119.257 15.5833 120.333 15.865 121.229 16.4283C122.139 16.9772 122.81 17.7644 123.244 18.79C123.692 19.8156 123.879 21.0217 123.807 22.4083H115.054C115.155 23.3906 115.465 24.1344 115.985 24.64C116.505 25.1456 117.184 25.3983 118.022 25.3983C118.759 25.3983 119.351 25.2178 119.799 24.8567C120.261 24.4956 120.572 24.0406 120.73 23.4917H123.742C123.482 24.8494 122.839 25.9039 121.814 26.655C120.803 27.3917 119.539 27.76 118.022 27.76C116.78 27.76 115.704 27.5072 114.794 27.0017C113.884 26.4961 113.19 25.7883 112.714 24.8783C112.237 23.9539 111.999 22.885 111.999 21.6717C111.999 20.4728 112.244 19.4111 112.735 18.4867C113.227 17.5622 113.927 16.8472 114.837 16.3417C115.747 15.8361 116.802 15.5833 118 15.5833ZM120.795 20.5017C120.709 19.7217 120.427 19.0933 119.95 18.6167C119.488 18.14 118.831 17.9017 117.979 17.9017C117.199 17.9017 116.563 18.1183 116.072 18.5517C115.581 18.985 115.256 19.635 115.097 20.5017H120.795Z" fill="#AAAAAA"/>
<path d="M130.707 15.5833C131.963 15.5833 133.04 15.865 133.935 16.4283C134.845 16.9772 135.517 17.7644 135.95 18.79C136.398 19.8156 136.586 21.0217 136.513 22.4083H127.76C127.861 23.3906 128.172 24.1344 128.692 24.64C129.212 25.1456 129.891 25.3983 130.728 25.3983C131.465 25.3983 132.057 25.2178 132.505 24.8567C132.967 24.4956 133.278 24.0406 133.437 23.4917H136.448C136.188 24.8494 135.546 25.9039 134.52 26.655C133.509 27.3917 132.245 27.76 130.728 27.76C129.486 27.76 128.41 27.5072 127.5 27.0017C126.59 26.4961 125.897 25.7883 125.42 24.8783C124.943 23.9539 124.705 22.885 124.705 21.6717C124.705 20.4728 124.951 19.4111 125.442 18.4867C125.933 17.5622 126.633 16.8472 127.543 16.3417C128.453 15.8361 129.508 15.5833 130.707 15.5833ZM133.502 20.5017C133.415 19.7217 133.133 19.0933 132.657 18.6167C132.195 18.14 131.537 17.9017 130.685 17.9017C129.905 17.9017 129.27 18.1183 128.778 18.5517C128.287 18.985 127.962 19.635 127.803 20.5017H133.502Z" fill="#AAAAAA"/>
<path d="M142.997 27.76C141.235 27.76 139.87 27.37 138.902 26.59C137.934 25.81 137.385 24.8278 137.255 23.6433H140.224C140.614 24.8856 141.56 25.5067 143.062 25.5067C143.755 25.5067 144.297 25.3839 144.687 25.1383C145.077 24.8783 145.272 24.5461 145.272 24.1417C145.272 23.7083 145.055 23.405 144.622 23.2317C144.203 23.0439 143.481 22.8561 142.455 22.6683C141.502 22.5094 140.686 22.3217 140.007 22.105C139.328 21.8739 138.743 21.5128 138.252 21.0217C137.761 20.5306 137.515 19.8733 137.515 19.05C137.515 17.88 138.006 17.0133 138.989 16.45C139.971 15.8722 141.17 15.5833 142.585 15.5833C144.145 15.5833 145.387 15.9228 146.312 16.6017C147.251 17.2806 147.807 18.1906 147.98 19.3317H145.012C144.839 18.855 144.557 18.4867 144.167 18.2267C143.791 17.9667 143.242 17.8367 142.52 17.8367C141.899 17.8367 141.401 17.9378 141.025 18.14C140.664 18.3422 140.484 18.6167 140.484 18.9633C140.484 19.2667 140.628 19.5194 140.917 19.7217C141.22 19.9094 141.552 20.0467 141.914 20.1333C142.275 20.22 142.896 20.35 143.777 20.5233C145.337 20.8122 146.471 21.195 147.179 21.6717C147.886 22.1483 148.24 22.8706 148.24 23.8383C148.24 25.0228 147.785 25.9761 146.875 26.6983C145.965 27.4061 144.672 27.76 142.997 27.76Z" fill="#AAAAAA"/>
<path d="M153.349 18.79C152.699 18.79 152.093 18.6456 151.529 18.3567C150.98 18.0533 150.54 17.6272 150.208 17.0783C149.89 16.5294 149.731 15.8939 149.731 15.1717C149.731 14.4494 149.89 13.8139 150.208 13.265C150.54 12.7161 150.98 12.2972 151.529 12.0083C152.093 11.705 152.699 11.5533 153.349 11.5533C153.999 11.5533 154.599 11.705 155.148 12.0083C155.711 12.2972 156.159 12.7233 156.491 13.2867C156.823 13.8356 156.989 14.4639 156.989 15.1717C156.989 15.8794 156.823 16.515 156.491 17.0783C156.159 17.6272 155.711 18.0533 155.148 18.3567C154.599 18.6456 153.999 18.79 153.349 18.79ZM153.349 16.97C153.84 16.97 154.23 16.8111 154.519 16.4933C154.823 16.1611 154.974 15.7206 154.974 15.1717C154.974 14.6228 154.823 14.1894 154.519 13.8717C154.23 13.5539 153.84 13.395 153.349 13.395C152.873 13.395 152.483 13.5539 152.179 13.8717C151.89 14.1894 151.746 14.6228 151.746 15.1717C151.746 15.7206 151.89 16.1611 152.179 16.4933C152.483 16.8111 152.873 16.97 153.349 16.97Z" fill="#AAAAAA"/>
<path fill-rule="evenodd" clip-rule="evenodd" d="M153.363 13.5583C152.467 13.5583 151.742 14.284 151.742 15.1792C151.742 16.0743 152.467 16.8 153.363 16.8C154.258 16.8 154.983 16.0743 154.983 15.1792C154.983 14.284 154.258 13.5583 153.363 13.5583ZM153.363 18.8083C155.367 18.8083 156.992 17.1835 156.992 15.1792C156.992 13.1748 155.367 11.55 153.363 11.55C151.358 11.55 149.733 13.1748 149.733 15.1792C149.733 17.1835 151.358 18.8083 153.363 18.8083Z" fill="#AAAAAA"/>
</svg>
