<svg width="203" height="40" viewBox="0 0 203 40" fill="none" xmlns="http://www.w3.org/2000/svg">
<path fill-rule="evenodd" clip-rule="evenodd" d="M11.2368 3.5911L5.49992 6.90421L11.2409 10.218L16.9793 6.90493L11.2368 3.5911ZM18.6466 9.79132L12.9075 13.1048L12.9069 19.7325L18.6466 16.4182L18.6466 9.79132ZM20.3133 19.305L14.5734 22.6193L20.3142 25.933L26.0534 22.6195L20.3133 19.305ZM27.7199 25.5063L21.9809 28.8197V35.4466L27.7199 32.1331V25.5063ZM18.6476 35.4469V28.8198L12.9067 25.506V32.133L18.6476 35.4469ZM9.57358 19.7328L3.83333 16.4182V9.79101L9.5742 13.1048L9.57358 19.7328ZM9.57332 23.5817L1.74988 19.0643C0.976444 18.6177 0.5 17.7924 0.5 16.8993V6.90457C0.5 6.3092 0.817588 5.75905 1.33316 5.4613L9.98635 0.463965C10.7597 0.0173292 11.7126 0.0171699 12.4862 0.463544L21.1463 5.46102C21.6622 5.75869 21.98 6.309 21.98 6.90457L21.98 16.4182L30.22 21.1762C30.7357 21.474 31.0533 22.0241 31.0533 22.6196V32.6143C31.0533 33.5074 30.5768 34.3328 29.8033 34.7793L21.1476 39.7767C20.632 40.0744 19.9967 40.0744 19.4811 39.7768L10.8235 34.7794C10.0499 34.3329 9.57332 33.5075 9.57332 32.6142V23.5817Z" fill="#AAAAAA"/>
<path d="M39.6665 27.4999V10.4899H48.0198C49.7465 10.4899 51.0454 10.8943 51.9165 11.7032C52.7876 12.4966 53.2232 13.5466 53.2232 14.8532C53.2232 15.7243 52.9976 16.5021 52.5465 17.1866C52.111 17.871 51.4809 18.3299 50.6565 18.5632V18.7499C51.6365 18.9521 52.3832 19.411 52.8965 20.1266C53.4254 20.8266 53.6898 21.6588 53.6898 22.6232C53.6898 24.2255 53.1532 25.4388 52.0798 26.2632C51.0221 27.0877 49.5209 27.4999 47.5765 27.4999H39.6665ZM43.1898 17.4666H47.1565C47.9965 17.4666 48.6032 17.2721 48.9765 16.8832C49.3654 16.4943 49.5598 15.9888 49.5598 15.3666C49.5598 14.6666 49.3265 14.1455 48.8598 13.8032C48.4087 13.4455 47.8021 13.2666 47.0398 13.2666H43.1898V17.4666ZM43.1898 24.6999H47.1798C48.1443 24.6999 48.8521 24.4899 49.3032 24.0699C49.7543 23.6499 49.9798 23.0977 49.9798 22.4132C49.9798 21.6355 49.7387 21.0677 49.2565 20.7099C48.7898 20.3366 48.1443 20.1499 47.3198 20.1499H43.1898V24.6999Z" fill="#AAAAAA"/>
<path d="M59.5955 27.7099C58.1489 27.7099 57.0444 27.2899 56.2822 26.4499C55.52 25.6099 55.1389 24.3888 55.1389 22.7866V14.9932H58.5689V21.8766C58.5689 22.8721 58.7478 23.6343 59.1055 24.1632C59.4789 24.6766 60.0933 24.9332 60.9489 24.9332C61.82 24.9332 62.4889 24.6377 62.9555 24.0466C63.4378 23.4399 63.6789 22.7243 63.6789 21.8999V14.9932H67.1089V27.4999H63.8189L63.6789 25.2132H63.5155C63.22 26.0221 62.7144 26.6443 61.9989 27.0799C61.2989 27.4999 60.4978 27.7099 59.5955 27.7099Z" fill="#AAAAAA"/>
<path d="M69.4634 13.3832V10.4899H72.8934V13.3832H69.4634ZM69.4634 27.4999V14.9932H72.8934V27.4999H69.4634Z" fill="#AAAAAA"/>
<path d="M75.3769 27.4999V10.4899H78.8069V27.4999H75.3769Z" fill="#AAAAAA"/>
<path d="M85.5371 27.7099C84.0438 27.7099 82.8382 27.1732 81.9204 26.0999C81.0027 25.011 80.5438 23.3932 80.5438 21.2466C80.5438 19.0843 81.0027 17.4666 81.9204 16.3932C82.8382 15.3043 84.0438 14.7599 85.5371 14.7599C86.5015 14.7599 87.326 14.9777 88.0104 15.4132C88.7104 15.8488 89.2082 16.4321 89.5038 17.1632H89.6904V10.4899H93.1204V27.4999H89.8071L89.6904 25.3066H89.5038C89.2082 26.0221 88.7104 26.6055 88.0104 27.0566C87.326 27.4921 86.5015 27.7099 85.5371 27.7099ZM86.8438 24.9332C87.4815 24.9332 88.0027 24.7855 88.4071 24.4899C88.8271 24.1943 89.1382 23.8132 89.3404 23.3466C89.5427 22.8643 89.6438 22.3588 89.6438 21.8299V20.6399C89.6438 20.0955 89.5427 19.5899 89.3404 19.1232C89.1382 18.6566 88.8271 18.2755 88.4071 17.9799C88.0027 17.6843 87.4815 17.5366 86.8438 17.5366C86.0038 17.5366 85.3271 17.8399 84.8138 18.4466C84.3004 19.0377 84.0438 19.971 84.0438 21.2466C84.0438 22.5066 84.3004 23.4399 84.8138 24.0466C85.3271 24.6377 86.0038 24.9332 86.8438 24.9332Z" fill="#AAAAAA"/>
<path d="M95.5894 13.3832V10.4899H99.0194V13.3832H95.5894ZM95.5894 27.4999V14.9932H99.0194V27.4999H95.5894Z" fill="#AAAAAA"/>
<path d="M101.503 27.4999V14.9932H104.793L104.933 17.2566H105.073C105.415 16.4321 105.944 15.8099 106.66 15.3899C107.375 14.9699 108.176 14.7599 109.063 14.7599C109.903 14.7599 110.65 14.931 111.303 15.2732C111.972 15.6155 112.501 16.1677 112.89 16.9299C113.278 17.6766 113.473 18.6799 113.473 19.9399V27.4999H110.043V20.6866C110.043 19.6288 109.856 18.8432 109.483 18.3299C109.11 17.8166 108.511 17.5599 107.686 17.5599C106.8 17.5599 106.115 17.8632 105.633 18.4699C105.166 19.061 104.933 19.7532 104.933 20.5466V27.4999H101.503Z" fill="#AAAAAA"/>
<path d="M118.671 31.3966C117.24 31.3966 116.182 31.1555 115.498 30.6732C114.829 30.191 114.495 29.5455 114.495 28.7366C114.495 28.0521 114.744 27.4999 115.241 27.0799C115.739 26.6599 116.307 26.4188 116.945 26.3566V26.1699C116.447 26.0143 116.05 25.7577 115.755 25.3999C115.475 25.0266 115.335 24.6066 115.335 24.1399C115.335 23.5799 115.521 23.1055 115.895 22.7166C116.284 22.3121 116.789 22.0399 117.411 21.8999V21.6666C116.882 21.371 116.455 20.9666 116.128 20.4532C115.817 19.9399 115.661 19.3332 115.661 18.6332C115.661 17.4666 116.128 16.5332 117.061 15.8332C118.01 15.1177 119.278 14.7599 120.865 14.7599C121.129 14.7599 121.401 14.7832 121.681 14.8299C121.977 14.861 122.249 14.9155 122.498 14.9932C122.716 14.1066 123.19 13.4143 123.921 12.9166C124.652 12.4032 125.609 12.1388 126.791 12.1232V14.7832C126.2 14.7677 125.671 14.8377 125.205 14.9932C124.738 15.1332 124.38 15.3588 124.131 15.6699C124.691 15.9343 125.15 16.3543 125.508 16.9299C125.866 17.4899 126.045 18.1355 126.045 18.8666C126.045 20.0177 125.586 20.9355 124.668 21.6199C123.766 22.3043 122.482 22.6466 120.818 22.6466C120.507 22.6466 120.196 22.631 119.885 22.5999C119.574 22.5688 119.27 22.5221 118.975 22.4599C118.726 22.4755 118.524 22.561 118.368 22.7166C118.228 22.8566 118.158 23.0355 118.158 23.2532C118.158 23.5488 118.321 23.7432 118.648 23.8366C118.99 23.9143 119.371 23.9532 119.791 23.9532H122.825C124.287 23.9532 125.36 24.241 126.045 24.8166C126.745 25.3766 127.11 26.2088 127.141 27.3132C127.172 28.2466 126.978 29.0088 126.558 29.5999C126.154 30.2066 125.578 30.6577 124.831 30.9532C124.085 31.2488 123.221 31.3966 122.241 31.3966H118.671ZM120.888 20.4999C121.526 20.4999 122.016 20.3366 122.358 20.0099C122.7 19.6677 122.871 19.2321 122.871 18.7032C122.871 18.1277 122.685 17.6843 122.311 17.3732C121.938 17.0621 121.456 16.9066 120.865 16.9066C120.242 16.9066 119.752 17.0777 119.395 17.4199C119.037 17.7621 118.858 18.1899 118.858 18.7032C118.858 19.2632 119.045 19.7066 119.418 20.0332C119.791 20.3443 120.281 20.4999 120.888 20.4999ZM119.185 29.4832H122.195C123.237 29.4832 123.758 29.0866 123.758 28.2932C123.758 27.8421 123.61 27.5543 123.315 27.4299C123.019 27.2899 122.677 27.2199 122.288 27.2199H118.461C118.166 27.2821 117.925 27.4143 117.738 27.6166C117.551 27.8188 117.458 28.0599 117.458 28.3399C117.458 28.7288 117.606 29.0166 117.901 29.2032C118.212 29.3899 118.64 29.4832 119.185 29.4832Z" fill="#AAAAAA"/>
<path d="M128.811 27.4999V10.4899H137.164C138.891 10.4899 140.19 10.8943 141.061 11.7032C141.932 12.4966 142.367 13.5466 142.367 14.8532C142.367 15.7243 142.142 16.5021 141.691 17.1866C141.255 17.871 140.625 18.3299 139.801 18.5632V18.7499C140.781 18.9521 141.527 19.411 142.041 20.1266C142.57 20.8266 142.834 21.6588 142.834 22.6232C142.834 24.2255 142.297 25.4388 141.224 26.2632C140.166 27.0877 138.665 27.4999 136.721 27.4999H128.811ZM132.334 17.4666H136.301C137.141 17.4666 137.747 17.2721 138.121 16.8832C138.51 16.4943 138.704 15.9888 138.704 15.3666C138.704 14.6666 138.471 14.1455 138.004 13.8032C137.553 13.4455 136.946 13.2666 136.184 13.2666H132.334V17.4666ZM132.334 24.6999H136.324C137.289 24.6999 137.996 24.4899 138.447 24.0699C138.899 23.6499 139.124 23.0977 139.124 22.4132C139.124 21.6355 138.883 21.0677 138.401 20.7099C137.934 20.3366 137.289 20.1499 136.464 20.1499H132.334V24.6999Z" fill="#AAAAAA"/>
<path d="M144.628 27.4999V10.4899H148.058V27.4999H144.628Z" fill="#AAAAAA"/>
<path d="M156.071 27.7099C154.827 27.7099 153.73 27.4532 152.781 26.9399C151.832 26.4266 151.093 25.6877 150.565 24.7232C150.051 23.7588 149.795 22.5999 149.795 21.2466C149.795 19.9555 150.043 18.8277 150.541 17.8632C151.039 16.8832 151.755 16.121 152.688 15.5766C153.621 15.0321 154.749 14.7599 156.071 14.7599C157.316 14.7599 158.405 15.0166 159.338 15.5299C160.287 16.0432 161.018 16.7899 161.531 17.7699C162.06 18.7343 162.325 19.8932 162.325 21.2466C162.325 22.5377 162.076 23.6732 161.578 24.6532C161.08 25.6177 160.365 26.3721 159.431 26.9166C158.513 27.4455 157.393 27.7099 156.071 27.7099ZM156.048 24.9332C156.888 24.9332 157.565 24.6299 158.078 24.0232C158.591 23.4166 158.848 22.491 158.848 21.2466C158.848 20.0021 158.599 19.0766 158.101 18.4699C157.603 17.8632 156.927 17.5599 156.071 17.5599C155.216 17.5599 154.531 17.8632 154.018 18.4699C153.505 19.0766 153.248 20.0021 153.248 21.2466C153.248 22.4755 153.497 23.401 153.995 24.0232C154.508 24.6299 155.192 24.9332 156.048 24.9332Z" fill="#AAAAAA"/>
<path d="M169.731 27.7099C168.486 27.7099 167.397 27.4455 166.464 26.9166C165.531 26.3721 164.807 25.6177 164.294 24.6532C163.781 23.6732 163.524 22.5377 163.524 21.2466C163.524 19.9399 163.781 18.8043 164.294 17.8399C164.823 16.8599 165.562 16.1055 166.511 15.5766C167.459 15.0321 168.572 14.7599 169.847 14.7599C170.921 14.7599 171.877 14.9621 172.717 15.3666C173.557 15.771 174.218 16.331 174.701 17.0466C175.198 17.7621 175.471 18.5943 175.517 19.5432H172.157C172.048 18.8899 171.776 18.3999 171.341 18.0732C170.905 17.731 170.376 17.5599 169.754 17.5599C168.852 17.5599 168.167 17.8943 167.701 18.5632C167.234 19.2321 167.001 20.1266 167.001 21.2466C167.001 22.4755 167.249 23.3932 167.747 23.9999C168.261 24.6066 168.922 24.9099 169.731 24.9099C170.462 24.9099 171.037 24.7232 171.457 24.3499C171.893 23.9766 172.142 23.4866 172.204 22.8799H175.541C175.494 23.8599 175.214 24.7155 174.701 25.4466C174.203 26.1621 173.526 26.7221 172.671 27.1266C171.815 27.5155 170.835 27.7099 169.731 27.7099Z" fill="#AAAAAA"/>
<path d="M177.18 27.4999V10.4899H180.656V20.1732L181.683 18.9832L185.393 14.9932H189.616L184.81 19.9399L189.71 27.4999H185.673L183.13 23.5332L182.383 22.2266L180.656 23.9299V27.4999H177.18Z" fill="#AAAAAA"/>
<path d="M195.72 27.7332C193.9 27.7332 192.493 27.3521 191.497 26.5899C190.517 25.8121 190.035 24.801 190.05 23.5566H193.41C193.426 24.2255 193.659 24.7077 194.11 25.0032C194.577 25.2832 195.145 25.4232 195.814 25.4232C196.514 25.4232 197.043 25.3066 197.4 25.0732C197.758 24.8243 197.937 24.4899 197.937 24.0699C197.937 23.4943 197.727 23.121 197.307 22.9499C196.903 22.7788 196.257 22.631 195.37 22.5066C194.453 22.3821 193.613 22.2032 192.85 21.9699C192.088 21.721 191.482 21.3477 191.03 20.8499C190.595 20.3521 190.377 19.6443 190.377 18.7266C190.377 17.4043 190.875 16.4166 191.87 15.7632C192.882 15.0943 194.204 14.7599 195.837 14.7599C197.439 14.7599 198.715 15.1099 199.664 15.8099C200.613 16.4943 201.103 17.4588 201.134 18.7032H197.774C197.774 18.1743 197.587 17.7699 197.214 17.4899C196.856 17.2099 196.366 17.0699 195.744 17.0699C195.106 17.0699 194.624 17.1943 194.297 17.4432C193.97 17.6766 193.807 17.9877 193.807 18.3766C193.807 18.8432 194.017 19.1699 194.437 19.3566C194.857 19.5432 195.526 19.6988 196.444 19.8232C197.097 19.9166 197.719 20.0332 198.31 20.1732C198.902 20.2977 199.423 20.4999 199.874 20.7799C200.34 21.0443 200.706 21.4177 200.97 21.8999C201.25 22.3666 201.39 22.981 201.39 23.7432C201.39 25.1121 200.885 26.1232 199.874 26.7766C198.863 27.4143 197.478 27.7332 195.72 27.7332Z" fill="#AAAAAA"/>
</svg>
