<svg width="165" height="40" viewBox="0 0 165 40" fill="none" xmlns="http://www.w3.org/2000/svg">
<path fill-rule="evenodd" clip-rule="evenodd" d="M0.5 20C13.2124 20 20.5 12.7124 20.5 0C20.5 12.7124 27.7876 20 40.5 20C27.7876 20 20.5 27.2876 20.5 40C20.5 27.2876 13.2124 20 0.5 20Z" fill="#AAAAAA"/>
<path d="M45.5 27.5L50.9675 11.0975H55.9175L61.385 27.5H57.74L56.6375 24.125H50.2475L49.145 27.5H45.5ZM51.0575 21.4475H55.8275L54.4325 17.2625L53.51 14.27H53.375L52.4525 17.2625L51.0575 21.4475Z" fill="#AAAAAA"/>
<path d="M67.4864 27.7025C66.2864 27.7025 65.2364 27.4475 64.3364 26.9375C63.4364 26.4125 62.7389 25.685 62.2439 24.755C61.7489 23.81 61.5014 22.715 61.5014 21.47C61.5014 20.21 61.7489 19.115 62.2439 18.185C62.7539 17.24 63.4664 16.5125 64.3814 16.0025C65.2964 15.4775 66.3689 15.215 67.5989 15.215C68.6339 15.215 69.5564 15.41 70.3664 15.8C71.1764 16.19 71.8139 16.73 72.2789 17.42C72.7589 18.11 73.0214 18.9125 73.0664 19.8275H69.8264C69.7214 19.1975 69.4589 18.725 69.0389 18.41C68.6189 18.08 68.1089 17.915 67.5089 17.915C66.6389 17.915 65.9789 18.2375 65.5289 18.8825C65.0789 19.5275 64.8539 20.39 64.8539 21.47C64.8539 22.655 65.0939 23.54 65.5739 24.125C66.0689 24.71 66.7064 25.0025 67.4864 25.0025C68.1914 25.0025 68.7464 24.8225 69.1514 24.4625C69.5714 24.1025 69.8114 23.63 69.8714 23.045H73.0889C73.0439 23.99 72.7739 24.815 72.2789 25.52C71.7989 26.21 71.1464 26.75 70.3214 27.14C69.4964 27.515 68.5514 27.7025 67.4864 27.7025Z" fill="#AAAAAA"/>
<path d="M74.6693 27.5V15.44H77.8643L77.9768 17.6225H78.1118C78.4118 16.8275 78.8993 16.2275 79.5743 15.8225C80.2493 15.4175 80.9918 15.215 81.8018 15.215C82.6418 15.215 83.4068 15.4175 84.0968 15.8225C84.7868 16.2275 85.2968 16.925 85.6268 17.915H85.8068C86.0918 17.015 86.5943 16.34 87.3143 15.89C88.0493 15.44 88.8743 15.215 89.7893 15.215C90.5693 15.215 91.2668 15.38 91.8818 15.71C92.4968 16.04 92.9843 16.5725 93.3443 17.3075C93.7193 18.0275 93.9068 18.995 93.9068 20.21V27.5H90.5993V20.93C90.5993 19.91 90.4268 19.1525 90.0818 18.6575C89.7518 18.1625 89.2118 17.915 88.4618 17.915C87.6668 17.915 87.0443 18.2075 86.5943 18.7925C86.1593 19.3625 85.9418 20.03 85.9418 20.795V27.5H82.6343V20.93C82.6343 19.91 82.4618 19.1525 82.1168 18.6575C81.7868 18.1625 81.2468 17.915 80.4968 17.915C79.6868 17.915 79.0643 18.2075 78.6293 18.7925C78.1943 19.3625 77.9768 20.03 77.9768 20.795V27.5H74.6693Z" fill="#AAAAAA"/>
<path d="M101.458 27.7025C100.198 27.7025 99.1175 27.4475 98.2175 26.9375C97.3325 26.4275 96.65 25.715 96.17 24.8C95.69 23.87 95.45 22.79 95.45 21.56C95.45 20.255 95.69 19.13 96.17 18.185C96.665 17.24 97.355 16.5125 98.24 16.0025C99.125 15.4775 100.16 15.215 101.345 15.215C102.74 15.215 103.888 15.5225 104.788 16.1375C105.688 16.7375 106.333 17.57 106.723 18.635C107.113 19.685 107.24 20.8775 107.105 22.2125H98.7125C98.6975 23.1725 98.945 23.915 99.455 24.44C99.965 24.95 100.633 25.205 101.458 25.205C102.088 25.205 102.62 25.07 103.055 24.8C103.505 24.515 103.79 24.14 103.91 23.675H107.038C106.933 24.485 106.625 25.19 106.115 25.79C105.62 26.39 104.975 26.8625 104.18 27.2075C103.385 27.5375 102.478 27.7025 101.458 27.7025ZM101.345 17.7125C100.595 17.7125 99.9875 17.93 99.5225 18.365C99.0575 18.785 98.795 19.3625 98.735 20.0975H103.865C103.82 19.2875 103.558 18.6875 103.078 18.2975C102.613 17.9075 102.035 17.7125 101.345 17.7125Z" fill="#AAAAAA"/>
<path d="M120.761 27.7025C119.126 27.7025 117.686 27.3725 116.441 26.7125C115.211 26.0525 114.251 25.0925 113.561 23.8325C112.871 22.5725 112.526 21.0575 112.526 19.2875C112.526 17.5175 112.871 16.01 113.561 14.765C114.251 13.505 115.211 12.545 116.441 11.885C117.686 11.225 119.126 10.895 120.761 10.895C122.171 10.895 123.423 11.1425 124.518 11.6375C125.613 12.1175 126.498 12.8 127.173 13.685C127.848 14.555 128.261 15.575 128.411 16.745H124.856C124.661 15.905 124.196 15.2225 123.461 14.6975C122.741 14.1575 121.841 13.8875 120.761 13.8875C119.351 13.8875 118.226 14.3375 117.386 15.2375C116.561 16.1375 116.148 17.4875 116.148 19.2875C116.148 21.1025 116.561 22.46 117.386 23.36C118.226 24.26 119.351 24.71 120.761 24.71C121.811 24.71 122.711 24.4475 123.461 23.9225C124.211 23.3975 124.676 22.7 124.856 21.83H128.411C128.276 23 127.863 24.0275 127.173 24.9125C126.483 25.7975 125.583 26.4875 124.473 26.9825C123.378 27.4625 122.141 27.7025 120.761 27.7025Z" fill="#AAAAAA"/>
<path d="M135.594 27.7025C134.394 27.7025 133.337 27.455 132.422 26.96C131.507 26.465 130.794 25.7525 130.284 24.8225C129.789 23.8925 129.542 22.775 129.542 21.47C129.542 20.225 129.782 19.1375 130.262 18.2075C130.742 17.2625 131.432 16.5275 132.332 16.0025C133.232 15.4775 134.319 15.215 135.594 15.215C136.794 15.215 137.844 15.4625 138.744 15.9575C139.659 16.4525 140.364 17.1725 140.859 18.1175C141.369 19.0475 141.624 20.165 141.624 21.47C141.624 22.715 141.384 23.81 140.904 24.755C140.424 25.685 139.734 26.4125 138.834 26.9375C137.949 27.4475 136.869 27.7025 135.594 27.7025ZM135.572 25.025C136.382 25.025 137.034 24.7325 137.529 24.1475C138.024 23.5625 138.272 22.67 138.272 21.47C138.272 20.27 138.032 19.3775 137.552 18.7925C137.072 18.2075 136.419 17.915 135.594 17.915C134.769 17.915 134.109 18.2075 133.614 18.7925C133.119 19.3775 132.872 20.27 132.872 21.47C132.872 22.655 133.112 23.5475 133.592 24.1475C134.087 24.7325 134.747 25.025 135.572 25.025Z" fill="#AAAAAA"/>
<path d="M143.281 27.5V15.44H146.274L146.409 17.375H146.521C146.791 16.595 147.219 16.055 147.804 15.755C148.404 15.44 149.086 15.2825 149.851 15.2825H150.526V18.3875H149.784C148.674 18.3875 147.871 18.635 147.376 19.13C146.881 19.61 146.619 20.3 146.589 21.2V27.5H143.281Z" fill="#AAAAAA"/>
<path d="M151.818 31.2575V15.44H155.013L155.125 17.5325H155.305C155.59 16.8275 156.063 16.265 156.723 15.845C157.398 15.425 158.2 15.215 159.13 15.215C160.57 15.215 161.733 15.74 162.618 16.79C163.518 17.825 163.968 19.385 163.968 21.47C163.968 23.54 163.518 25.1 162.618 26.15C161.733 27.2 160.57 27.725 159.13 27.725C158.2 27.725 157.398 27.515 156.723 27.095C156.063 26.66 155.59 26.0975 155.305 25.4075H155.125V31.2575H151.818ZM157.893 25.0475C158.703 25.0475 159.348 24.7625 159.828 24.1925C160.323 23.6075 160.57 22.7 160.57 21.47C160.57 20.24 160.323 19.34 159.828 18.77C159.348 18.185 158.703 17.8925 157.893 17.8925C157.278 17.8925 156.768 18.035 156.363 18.32C155.958 18.605 155.658 18.98 155.463 19.445C155.268 19.895 155.17 20.375 155.17 20.885V22.055C155.17 22.565 155.268 23.0525 155.463 23.5175C155.658 23.9675 155.958 24.335 156.363 24.62C156.768 24.905 157.278 25.0475 157.893 25.0475Z" fill="#AAAAAA"/>
</svg>
