<svg width="128" height="40" viewBox="0 0 128 40" fill="none" xmlns="http://www.w3.org/2000/svg">
<path d="M19.8783 28.9324C17.2269 27.9475 14.4996 27.796 11.9997 28.4779C10.2573 28.9324 8.59065 29.8415 7.07552 30.9778L6.01492 31.8869L5.7119 32.1899L6.3937 32.7959C6.46945 32.7959 6.46946 32.8717 6.54522 32.9475C6.69673 33.099 6.84825 33.1747 7.07552 33.3263L7.53004 33.6293L7.98458 33.2505C8.06034 33.1747 8.21185 33.0232 8.36337 32.9475C9.72698 31.8111 11.2421 31.0536 12.833 30.6748C14.8784 30.1445 17.0753 30.2202 19.2723 31.0536C21.0904 31.7354 24.8025 32.5687 29.2721 30.6748L29.4236 30.599L29.6509 30.3718C29.6509 30.296 29.7266 30.296 29.8024 30.2202C30.1812 29.7657 30.56 29.3112 30.863 28.7809L32.3781 26.4324L29.9539 27.796C26.3934 29.7657 23.1358 30.1445 19.8783 28.9324Z" fill="#AAAAAA"/>
<path d="M9.50001 20.7509C11.5454 20.2206 13.7424 20.2964 15.9393 21.1297C18.3635 22.0388 24.5755 23.3267 31.5451 17.0389L33.0602 15.5238L32.9087 15.145C32.8329 14.842 32.6814 14.4632 32.5299 14.0844L32.1511 13.0238L31.3936 13.7814C31.3178 13.9329 31.1663 14.0086 31.0148 14.1601C27.6815 17.5692 22.5301 21.054 16.6211 18.9328C13.9696 17.948 11.2424 17.7964 8.74245 18.4783C6.31825 19.1601 4.19707 20.4479 2.2274 22.2661V22.1903L1.09106 23.4024C1.09106 23.4782 1.01532 23.4782 0.939561 23.5539L0.712278 23.7812L0.788039 24.0842C0.863795 24.463 1.0153 24.8418 1.09106 25.2206L1.5456 26.4327L2.30316 25.4478C2.37892 25.2963 2.53043 25.2206 2.60618 25.0691C4.19707 23.6297 6.394 21.5843 9.50001 20.7509Z" fill="#AAAAAA"/>
<path d="M2.15167 19.3872C3.89406 17.569 5.86371 16.4326 7.98488 15.8266C10.0303 15.2963 12.2272 15.3721 14.4242 16.2054C21.2422 18.7053 27.1512 14.6145 29.7269 12.4176L30.7118 11.4327L31.0905 11.1297L30.7875 10.6752C30.5603 10.4479 30.4088 10.1449 30.1815 9.84186L29.7269 9.23579L29.1966 9.7661C29.1209 9.84185 28.9694 9.99336 28.8936 10.0691C25.7119 13.0994 20.7877 16.2054 15.1817 14.0842C12.5303 13.0994 9.80304 12.9479 7.30308 13.6297C5.7122 14.0842 4.19707 14.8418 2.68195 15.8266L1.09106 17.1145C0.939546 17.266 0.86379 17.3417 0.712277 17.4932L0.560779 17.6447V17.872C0.485023 18.4023 0.485013 18.9326 0.409257 19.3872L0.333496 21.2811L1.62136 19.9174C1.77287 19.7659 1.9244 19.5387 2.15167 19.3872Z" fill="#AAAAAA"/>
<path d="M22.0758 34.0839C21.8486 34.0081 21.6971 33.9324 21.4698 33.8566C18.8183 32.8718 16.0911 32.7203 13.5911 33.4021C13.0608 33.5536 12.5306 33.7051 12.0003 33.9324L10.1821 34.7657L9.72757 34.993L11.2427 35.5233C11.6972 35.6748 12.1518 35.8263 12.6063 35.9778L12.8336 36.0536L13.0608 35.9778C13.2881 35.902 13.5154 35.7505 13.7426 35.7505C13.8942 35.7505 14.0457 35.6748 14.1972 35.599C16.0153 35.1445 17.985 35.1445 20.1062 35.8263C20.3334 35.902 20.485 35.9778 20.7122 36.0536L21.091 36.2051L21.3183 36.1293C21.8486 35.9778 22.4546 35.8263 22.9092 35.599L25.0303 34.8415L22.8334 34.3111C22.6061 34.2354 22.3031 34.1596 22.0758 34.0839Z" fill="#AAAAAA"/>
<path d="M33.6668 18.4024L32.5305 19.5387C32.379 19.6902 32.2275 19.8417 32.076 19.9933C28.97 22.9478 23.97 26.1295 18.3641 24.0083C15.7126 23.0235 12.9854 22.872 10.4854 23.5538C8.13699 24.2356 6.01579 25.4477 4.12189 27.2659L3.13707 28.3264L2.83404 28.7052L3.13707 29.1598C3.36433 29.4628 3.51586 29.6901 3.66737 29.9931L4.12189 30.6749L4.65219 29.9931C4.72795 29.9173 4.87945 29.7658 4.95521 29.6901C6.77336 27.7204 8.74302 26.5083 11.0157 25.9022C13.0611 25.3719 15.2581 25.4477 17.455 26.281C19.3489 26.9628 21.3186 27.1901 23.2882 26.9628C26.773 26.5841 30.2578 24.6144 32.8335 22.4175C32.985 22.266 33.1365 22.1902 33.288 22.0387L33.5153 21.8114V21.5841C33.5153 21.1296 33.5911 20.5993 33.5911 20.1448L33.6668 18.4024Z" fill="#AAAAAA"/>
<path d="M4.87827 11.433C5.33281 11.2057 5.86312 11.0542 6.31766 10.9026C8.36308 10.3724 10.56 10.4481 12.7569 11.2814C14.1963 11.8117 15.6357 12.039 17.2266 12.039C20.4083 12.039 23.5901 10.9027 26.5446 8.70572L28.0597 7.49362L27.3779 6.96331C27.1506 6.73604 26.8476 6.50878 26.5446 6.35727L26.09 6.05425L25.7112 6.35727C25.5597 6.43303 25.484 6.58454 25.3325 6.66029C21.3174 9.69054 17.3023 10.5239 13.5145 9.0845C10.7873 8.09967 8.06004 7.8724 5.33281 8.70572C5.10554 8.78148 4.87828 8.85722 4.57525 8.93298L4.42375 9.00874L4.19647 9.236C4.19647 9.31176 4.12073 9.31177 4.04497 9.38752C3.74195 9.84206 3.36315 10.2209 3.06013 10.6754L1.62076 12.8723L3.96921 11.6602C4.34799 11.6602 4.651 11.5087 4.87827 11.433Z" fill="#AAAAAA"/>
<path d="M11.0909 6.28139L11.3182 6.35716C12.303 6.73594 13.8181 7.11472 15.712 7.11472C17.6817 7.11472 19.5756 6.66018 21.4695 5.90261L23.8179 4.76627L22.2271 4.23599C21.7725 4.08448 21.318 3.93296 20.7877 3.85721H20.5604L20.3332 3.93295C20.1059 4.0087 19.8786 4.16023 19.6513 4.23599C17.3787 5.06931 15.106 5.22082 12.909 4.61477C12.6818 4.53901 12.4545 4.46324 12.2272 4.38749L12 4.31173L11.7727 4.38749C11.3182 4.539 10.8636 4.69052 10.4091 4.91779L8.66669 5.67535L10.4849 6.20563C10.6364 6.12988 10.8636 6.20564 11.0909 6.28139Z" fill="#AAAAAA"/>
<path d="M110.957 11.6375C110.612 11.2925 110.177 11.12 109.652 11.12C109.127 11.12 108.684 11.2925 108.324 11.6375C107.979 11.9675 107.807 12.3875 107.807 12.8975C107.807 13.4075 107.979 13.835 108.324 14.18C108.684 14.525 109.127 14.6975 109.652 14.6975C110.177 14.6975 110.612 14.525 110.957 14.18C111.302 13.835 111.474 13.4075 111.474 12.8975C111.474 12.3875 111.302 11.9675 110.957 11.6375Z" fill="#AAAAAA"/>
<path d="M85.4902 24.26C84.9202 23.78 84.6052 23.15 84.5452 22.37L81.2377 22.325C81.2527 23.33 81.5377 24.2375 82.0927 25.0475C82.6477 25.8575 83.4127 26.495 84.3877 26.96C85.3777 27.41 86.5027 27.635 87.7627 27.635C88.9327 27.635 89.9827 27.4175 90.9127 26.9825C91.8577 26.5475 92.5927 25.955 93.1177 25.205C93.6427 24.44 93.9052 23.5775 93.9052 22.6175C93.9052 21.6275 93.6802 20.84 93.2302 20.255C92.7952 19.655 92.2177 19.2125 91.4977 18.9275C90.7777 18.6275 89.8927 18.38 88.8427 18.185C87.8077 17.99 87.0427 17.825 86.5477 17.69C86.0527 17.54 85.6702 17.3525 85.4002 17.1275C85.1302 16.8875 84.9952 16.5575 84.9952 16.1375C84.9952 15.5525 85.2202 15.1025 85.6702 14.7875C86.1202 14.4725 86.7202 14.315 87.4702 14.315C88.2802 14.315 88.9327 14.525 89.4277 14.945C89.9227 15.35 90.2077 15.89 90.2827 16.565H93.5902C93.5752 15.62 93.2977 14.7725 92.7577 14.0225C92.2327 13.2725 91.5052 12.6875 90.5752 12.2675C89.6602 11.8325 88.6252 11.615 87.4702 11.615C86.3452 11.615 85.3327 11.825 84.4327 12.245C83.5477 12.65 82.8502 13.2125 82.3402 13.9325C81.8452 14.6525 81.5977 15.47 81.5977 16.385C81.5977 17.39 81.8152 18.2 82.2502 18.815C82.7002 19.415 83.2777 19.8725 83.9827 20.1875C84.6877 20.4875 85.5577 20.735 86.5927 20.93C87.6427 21.14 88.4152 21.32 88.9102 21.47C89.4202 21.605 89.8102 21.8 90.0802 22.055C90.3652 22.295 90.5077 22.625 90.5077 23.045C90.5077 23.645 90.2527 24.1175 89.7427 24.4625C89.2477 24.7925 88.6027 24.9575 87.8077 24.9575C86.8477 24.9575 86.0752 24.725 85.4902 24.26Z" fill="#AAAAAA"/>
<path fill-rule="evenodd" clip-rule="evenodd" d="M47.76 11.75L42 27.5H45.4875L46.7025 24.0575H52.6875L53.9025 27.5H57.525L51.81 11.75H47.76ZM47.6025 21.335L49.6725 15.35L51.765 21.335H47.6025Z" fill="#AAAAAA"/>
<path d="M101.825 15.8C103.19 15.8 104.308 16.22 105.178 17.06C106.063 17.9 106.505 19.2875 106.505 21.2225V27.5H103.333V21.3575C103.333 20.3975 103.138 19.67 102.748 19.175C102.358 18.665 101.773 18.41 100.993 18.41C100.183 18.41 99.5452 18.6875 99.0802 19.2425C98.6302 19.7975 98.4052 20.57 98.4052 21.56V27.5H95.2327V11.75H98.4052V17.3525C99.2602 16.3175 100.4 15.8 101.825 15.8Z" fill="#AAAAAA"/>
<path d="M116.903 15.395C116.903 15.065 116.978 14.825 117.128 14.675C117.278 14.525 117.517 14.45 117.848 14.45H119.805V11.75H117.218C116.063 11.75 115.193 12.0275 114.608 12.5825C114.022 13.1225 113.73 13.9025 113.73 14.9225V15.935H111.818V18.6125H113.73V27.5H116.903V18.6125H121.915V27.5H125.088V18.6125H127.585V15.935H125.088V11.75H121.915V15.935H116.903V15.395Z" fill="#AAAAAA"/>
<path d="M111.227 15.935H108.054V27.5H111.227V15.935Z" fill="#AAAAAA"/>
<path d="M61.4455 11.75H58.2729V27.5H61.4455V11.75Z" fill="#AAAAAA"/>
<path d="M63.9488 15.935H62.0363V18.6125H63.9488V27.5H67.1213V18.6125H69.6188V15.935H67.1213V11.75H63.9488V15.935Z" fill="#AAAAAA"/>
<path d="M73.7306 26.06H76.6106V22.55H80.1194V19.67H76.6106V16.16L76.6094 16.16H73.7294V19.67H70.2194V22.55H73.7294V26.06L73.7306 26.06Z" fill="#AAAAAA"/>
</svg>
