<svg width="178" height="40" viewBox="0 0 178 40" fill="none" xmlns="http://www.w3.org/2000/svg">
<path fill-rule="evenodd" clip-rule="evenodd" d="M3.57584 23.8354C4.33177 24.5869 4.33176 25.8055 3.57582 26.5571L3.5371 26.5955C2.78116 27.3471 1.55554 27.3471 0.799607 26.5955C0.0436756 25.8439 0.0436872 24.6254 0.799633 23.8738L0.838347 23.8353C1.59429 23.0838 2.81991 23.0838 3.57584 23.8354Z" fill="#AAAAAA"/>
<path fill-rule="evenodd" clip-rule="evenodd" d="M12.6759 24.4151C13.4305 25.168 13.4283 26.3866 12.6709 27.1368L7.30905 32.4485C6.55175 33.1987 5.32613 33.1965 4.57156 32.4435C3.81699 31.6906 3.81921 30.4721 4.57651 29.7219L9.93841 24.4102C10.6957 23.6599 11.9213 23.6621 12.6759 24.4151Z" fill="#AAAAAA"/>
<path fill-rule="evenodd" clip-rule="evenodd" d="M19.9523 33.5589C20.5453 32.6745 21.7471 32.4355 22.6366 33.0251L22.7527 33.1021C23.6422 33.6917 23.8826 34.8865 23.2896 35.7709C22.6966 36.6553 21.4948 36.8943 20.6053 36.3047L20.4891 36.2277C19.5996 35.6381 19.3593 34.4432 19.9523 33.5589Z" fill="#AAAAAA"/>
<path fill-rule="evenodd" clip-rule="evenodd" d="M32.7273 23.7199C33.4832 24.4714 33.4832 25.69 32.7273 26.4416L30.0947 29.0589C29.3388 29.8105 28.1132 29.8105 27.3572 29.0589C26.6013 28.3073 26.6013 27.0888 27.3572 26.3372L29.9898 23.7199C30.7457 22.9683 31.9714 22.9683 32.7273 23.7199Z" fill="#AAAAAA"/>
<path fill-rule="evenodd" clip-rule="evenodd" d="M32.7663 14.0395C33.5223 14.7911 33.5223 16.0097 32.7663 16.7612L13.3125 36.1027C12.5566 36.8543 11.3309 36.8543 10.575 36.1027C9.81907 35.3511 9.81907 34.1326 10.575 33.381L30.0288 14.0395C30.7848 13.288 32.0104 13.288 32.7663 14.0395Z" fill="#AAAAAA"/>
<path fill-rule="evenodd" clip-rule="evenodd" d="M29.0875 8.09273C29.8435 8.84431 29.8435 10.0629 29.0875 10.8144L17.8992 21.9382C17.1432 22.6898 15.9176 22.6898 15.1617 21.9382C14.4057 21.1866 14.4057 19.9681 15.1617 19.2165L26.35 8.09273C27.106 7.34116 28.3316 7.34116 29.0875 8.09273Z" fill="#AAAAAA"/>
<path fill-rule="evenodd" clip-rule="evenodd" d="M23.1821 4.31975C23.9386 5.07082 23.9394 6.28936 23.184 7.04144L8.80171 21.3599C8.04628 22.112 6.82066 22.1128 6.06421 21.3617C5.30777 20.6107 5.30694 19.3921 6.06237 18.6401L20.4446 4.32158C21.2001 3.56951 22.4257 3.56869 23.1821 4.31975Z" fill="#AAAAAA"/>
<path fill-rule="evenodd" clip-rule="evenodd" d="M8.9397 8.90337C9.69433 9.65623 9.69222 10.8748 8.93498 11.6251L3.30209 17.2062C2.54485 17.9565 1.31924 17.9544 0.5646 17.2015C-0.190036 16.4486 -0.187927 15.2301 0.569312 14.4798L6.2022 8.89868C6.95944 8.1484 8.18506 8.1505 8.9397 8.90337Z" fill="#AAAAAA"/>
<path fill-rule="evenodd" clip-rule="evenodd" d="M12.3898 3.33359C13.4589 3.33359 14.3255 4.19523 14.3255 5.25811V5.45057C14.3255 6.51345 13.4589 7.37509 12.3898 7.37509C11.3207 7.37509 10.4541 6.51345 10.4541 5.45057V5.25811C10.4541 4.19523 11.3207 3.33359 12.3898 3.33359Z" fill="#AAAAAA"/>
<path d="M55.2117 19.805C55.7742 20.57 56.0667 21.515 56.0667 22.595C56.0667 23.54 55.8192 24.3725 55.3467 25.115C54.8517 25.88 54.1992 26.465 53.3442 26.87C52.4892 27.2975 51.5217 27.5 50.4417 27.5H41.6667V9.72501H49.8567C51.5442 9.72501 52.8717 10.1525 53.8617 11.0075C54.8292 11.8625 55.3242 12.9875 55.3242 14.405C55.3242 15.35 55.0992 16.1825 54.6492 16.8575C54.1992 17.5325 53.5692 18.0275 52.7817 18.2975C53.8167 18.5225 54.6267 19.04 55.2117 19.805ZM45.1767 17.0375H48.7092C49.7442 17.0375 50.5092 16.9025 51.0042 16.5875C51.4992 16.2725 51.7467 15.8 51.7467 15.1475C51.7467 14.4725 51.4767 13.955 50.9592 13.6175C50.4417 13.3025 49.6542 13.1225 48.5967 13.1225H45.1767V17.0375ZM51.6567 23.585C52.1742 23.2475 52.4442 22.73 52.4442 22.01C52.4442 21.3575 52.1742 20.8625 51.6792 20.5475C51.1842 20.2325 50.3967 20.075 49.3392 20.075H45.1767V24.1025H49.2492C50.3292 24.1025 51.1167 23.945 51.6567 23.585Z" fill="#AAAAAA"/>
<path d="M57.9195 13.775C57.5145 13.37 57.312 12.875 57.312 12.245C57.312 11.66 57.5145 11.165 57.9195 10.76C58.3245 10.3775 58.8195 10.175 59.4495 10.175C60.057 10.175 60.552 10.3775 60.957 10.76C61.362 11.165 61.5645 11.66 61.5645 12.245C61.5645 12.8525 61.362 13.3475 60.957 13.7525C60.552 14.1575 60.057 14.36 59.4495 14.36C58.8195 14.36 58.3245 14.18 57.9195 13.775ZM57.762 15.8H61.1145V27.5H57.762V15.8Z" fill="#AAAAAA"/>
<path d="M65.4862 27.0725C64.5412 26.5325 63.7987 25.79 63.2812 24.845C62.7412 23.9 62.4937 22.8425 62.4937 21.6275C62.4937 20.435 62.7412 19.3775 63.2812 18.4325C63.7987 17.4875 64.5412 16.7675 65.4862 16.2275C66.4312 15.71 67.5112 15.44 68.7262 15.44C69.9412 15.44 71.0212 15.71 71.9662 16.2275C72.9112 16.7675 73.6312 17.4875 74.1712 18.4325C74.7112 19.3775 74.9812 20.435 74.9812 21.6275C74.9812 22.8425 74.7112 23.9 74.1712 24.845C73.6312 25.79 72.8887 26.5325 71.9437 27.0725C70.9987 27.6125 69.9187 27.86 68.7262 27.86C67.5112 27.86 66.4312 27.6125 65.4862 27.0725ZM70.8187 24.035C71.3587 23.405 71.6287 22.6175 71.6287 21.6275C71.6287 20.66 71.3587 19.8725 70.8187 19.2425C70.2787 18.635 69.5812 18.32 68.7262 18.32C67.8712 18.32 67.1962 18.635 66.6562 19.2425C66.1162 19.8725 65.8462 20.66 65.8462 21.6275C65.8462 22.6175 66.1162 23.405 66.6562 24.035C67.1962 24.665 67.8712 24.98 68.7262 24.98C69.5812 24.98 70.2787 24.665 70.8187 24.035Z" fill="#AAAAAA"/>
<path d="M77.489 26.78C76.4765 26.06 75.959 25.0475 75.9365 23.765H79.244C79.244 24.3275 79.4915 24.755 79.9415 25.07C80.3915 25.385 80.9765 25.5425 81.6965 25.5425C82.304 25.5425 82.799 25.43 83.159 25.16C83.519 24.89 83.7215 24.575 83.7215 24.215C83.7215 23.7875 83.4965 23.495 83.0465 23.315C82.5965 23.1575 81.9215 23 80.9765 22.865C79.9865 22.73 79.1765 22.5725 78.5465 22.3925C77.9165 22.2125 77.354 21.875 76.904 21.38C76.454 20.885 76.229 20.1875 76.229 19.2875C76.229 18.1175 76.7015 17.1725 77.6915 16.475C78.6815 15.8 80.0315 15.44 81.7415 15.44C83.294 15.44 84.5315 15.8225 85.4765 16.565C86.4215 17.3075 86.939 18.32 87.0515 19.6025H83.7665C83.7215 19.04 83.519 18.59 83.1365 18.2525C82.7315 17.9375 82.214 17.7575 81.539 17.7575C80.909 17.7575 80.4365 17.8925 80.099 18.14C79.739 18.41 79.5815 18.7475 79.5815 19.1525C79.5815 19.5575 79.784 19.85 80.2115 20.0075C80.639 20.1875 81.314 20.3225 82.214 20.4125C83.204 20.5475 84.0365 20.7275 84.689 20.9075C85.319 21.0875 85.8815 21.4475 86.354 21.9425C86.804 22.4375 87.0515 23.1575 87.0515 24.1025C87.0515 25.2725 86.5565 26.1725 85.589 26.8475C84.6215 27.5225 83.294 27.86 81.6065 27.86C79.8515 27.86 78.479 27.5 77.489 26.78Z" fill="#AAAAAA"/>
<path d="M87.9456 29.0525H89.0931C89.8131 29.075 90.3981 28.985 90.8481 28.7825C91.2756 28.58 91.6806 28.22 92.0631 27.68L86.7756 15.8H90.2856L93.7956 23.6075L96.7206 15.8H100.208L95.4381 28.355C94.8531 29.7275 94.0881 30.6725 93.1206 31.2125C92.1531 31.7525 90.9156 32 89.3856 32H87.9456V29.0525Z" fill="#AAAAAA"/>
<path d="M100.767 15.8H104.097V17.4875C104.502 16.8575 105.02 16.34 105.695 15.98C106.37 15.62 107.157 15.44 108.057 15.44C110.937 15.44 112.4 17.2625 112.4 20.885V27.5H109.025V21.065C109.025 20.21 108.822 19.5575 108.417 19.0625C108.012 18.5675 107.45 18.32 106.73 18.32C105.92 18.32 105.267 18.6125 104.795 19.1975C104.322 19.7825 104.097 20.5475 104.097 21.515V27.5H100.767V15.8Z" fill="#AAAAAA"/>
<path d="M119.033 27.59C118.133 27.59 117.436 27.5 116.941 27.32C116.423 27.14 116.041 26.825 115.816 26.3525C115.568 25.88 115.456 25.205 115.478 24.35V18.8375H112.981L113.192 15.8H115.478V12.65H118.808V15.8H121.868L121.658 18.8375H118.808V22.64C118.808 23.225 118.831 23.63 118.876 23.8775C118.921 24.1475 119.056 24.3275 119.236 24.44C119.416 24.5525 119.708 24.5975 120.136 24.5975C120.451 24.5975 121.349 24.575 121.867 24.53L121.658 27.4775C120.646 27.5675 119.596 27.59 119.033 27.59Z" fill="#AAAAAA"/>
<path d="M123.127 9.72501H126.457V17.465C126.862 16.835 127.379 16.34 128.054 15.98C128.729 15.62 129.517 15.44 130.417 15.44C133.297 15.44 134.759 17.2625 134.759 20.8625V27.5H131.384V21.02C131.384 20.165 131.182 19.5125 130.777 19.04C130.372 18.5675 129.809 18.32 129.089 18.32C128.279 18.32 127.627 18.6125 127.154 19.175C126.682 19.76 126.457 20.525 126.457 21.47V27.5H123.127V9.72501Z" fill="#AAAAAA"/>
<path d="M138.957 27.0725C138.012 26.5325 137.292 25.79 136.775 24.845C136.257 23.9 136.01 22.8425 136.01 21.6275C136.01 20.435 136.257 19.3775 136.775 18.4325C137.292 17.4875 138.012 16.7675 138.957 16.2275C139.88 15.71 140.937 15.44 142.13 15.44C143.165 15.44 144.087 15.71 144.92 16.205C145.752 16.7 146.405 17.42 146.9 18.3425C147.372 19.2875 147.62 20.345 147.62 21.56V22.64H139.407C139.475 23.4275 139.745 24.035 140.195 24.485C140.645 24.935 141.297 25.1375 142.152 25.1375C142.715 25.1375 143.187 25.0025 143.547 24.7325C143.907 24.4625 144.132 24.125 144.222 23.6975H147.552C147.372 24.9575 146.765 25.97 145.775 26.735C144.785 27.5 143.57 27.86 142.13 27.86C140.937 27.86 139.88 27.6125 138.957 27.0725ZM144.267 20.5925C144.222 19.9175 144.02 19.3775 143.615 18.95C143.21 18.545 142.67 18.32 141.995 18.32C141.23 18.32 140.645 18.5225 140.217 18.9275C139.79 19.3325 139.52 19.895 139.43 20.5925H144.267Z" fill="#AAAAAA"/>
<path d="M150.126 26.78C149.114 26.06 148.596 25.0475 148.574 23.765H151.881C151.881 24.3275 152.129 24.755 152.579 25.07C153.029 25.385 153.614 25.5425 154.334 25.5425C154.941 25.5425 155.436 25.43 155.796 25.16C156.156 24.89 156.359 24.575 156.359 24.215C156.359 23.7875 156.134 23.495 155.684 23.315C155.234 23.1575 154.559 23 153.614 22.865C152.624 22.73 151.814 22.5725 151.184 22.3925C150.554 22.2125 149.991 21.875 149.541 21.38C149.091 20.885 148.866 20.1875 148.866 19.2875C148.866 18.1175 149.339 17.1725 150.329 16.475C151.319 15.8 152.669 15.44 154.379 15.44C155.931 15.44 157.169 15.8225 158.114 16.565C159.059 17.3075 159.576 18.32 159.689 19.6025H156.404C156.359 19.04 156.156 18.59 155.774 18.2525C155.369 17.9375 154.851 17.7575 154.176 17.7575C153.546 17.7575 153.074 17.8925 152.736 18.14C152.376 18.41 152.219 18.7475 152.219 19.1525C152.219 19.5575 152.421 19.85 152.849 20.0075C153.276 20.1875 153.951 20.3225 154.851 20.4125C155.841 20.5475 156.674 20.7275 157.326 20.9075C157.956 21.0875 158.519 21.4475 158.991 21.9425C159.441 22.4375 159.689 23.1575 159.689 24.1025C159.689 25.2725 159.194 26.1725 158.226 26.8475C157.259 27.5225 155.931 27.86 154.244 27.86C152.489 27.86 151.116 27.5 150.126 26.78Z" fill="#AAAAAA"/>
<path d="M161.217 13.775C160.812 13.37 160.61 12.875 160.61 12.245C160.61 11.66 160.812 11.165 161.217 10.76C161.622 10.3775 162.117 10.175 162.747 10.175C163.355 10.175 163.85 10.3775 164.255 10.76C164.66 11.165 164.862 11.66 164.862 12.245C164.862 12.8525 164.66 13.3475 164.255 13.7525C163.85 14.1575 163.355 14.36 162.747 14.36C162.117 14.36 161.622 14.18 161.217 13.775ZM161.06 15.8H164.412V27.5H161.06V15.8Z" fill="#AAAAAA"/>
<path d="M175.354 26.78C176.367 26.06 176.884 25.0475 176.907 23.765H173.599C173.599 24.3275 173.352 24.755 172.902 25.07C172.452 25.385 171.867 25.5425 171.147 25.5425C170.539 25.5425 170.044 25.43 169.684 25.16C169.324 24.89 169.122 24.575 169.122 24.215C169.122 23.7875 169.347 23.495 169.797 23.315C170.247 23.1575 170.922 23 171.867 22.865C172.857 22.73 173.667 22.5725 174.297 22.3925C174.927 22.2125 175.489 21.875 175.939 21.38C176.389 20.885 176.614 20.1875 176.614 19.2875C176.614 18.1175 176.142 17.1725 175.152 16.475C174.162 15.8 172.812 15.44 171.102 15.44C169.549 15.44 168.312 15.8225 167.367 16.565C166.422 17.3075 165.904 18.32 165.792 19.6025H169.077C169.122 19.04 169.324 18.59 169.707 18.2525C170.112 17.9375 170.629 17.7575 171.304 17.7575C171.934 17.7575 172.407 17.8925 172.744 18.14C173.104 18.41 173.262 18.7475 173.262 19.1525C173.262 19.5575 173.059 19.85 172.632 20.0075C172.204 20.1875 171.529 20.3225 170.629 20.4125C169.639 20.5475 168.807 20.7275 168.154 20.9075C167.524 21.0875 166.962 21.4475 166.489 21.9425C166.039 22.4375 165.792 23.1575 165.792 24.1025C165.792 25.2725 166.287 26.1725 167.254 26.8475C168.222 27.5225 169.549 27.86 171.237 27.86C172.992 27.86 174.364 27.5 175.354 26.78Z" fill="#AAAAAA"/>
</svg>
