<svg width="161" height="40" viewBox="0 0 161 40" fill="none" xmlns="http://www.w3.org/2000/svg">
<path fill-rule="evenodd" clip-rule="evenodd" d="M29.6436 11.6667V18.3743H21.3354V16.4637L29.6436 11.6667Z" fill="#AAAAAA"/>
<path opacity="0.9" fill-rule="evenodd" clip-rule="evenodd" d="M29.6417 11.6668L21.3336 16.4638L15.2075 12.9275V3.33334L29.6417 11.6668Z" fill="#AAAAAA"/>
<path opacity="0.8" fill-rule="evenodd" clip-rule="evenodd" d="M15.2096 3.33334V12.9275L9.08545 16.4638L0.777344 11.6668L15.2096 3.33334Z" fill="#AAAAAA"/>
<path opacity="0.7" fill-rule="evenodd" clip-rule="evenodd" d="M9.0835 16.4638V23.5362L0.775391 28.3329V11.6667L9.0835 16.4638Z" fill="#AAAAAA"/>
<path opacity="0.6" fill-rule="evenodd" clip-rule="evenodd" d="M15.2077 27.0725V36.6666L0.775391 28.3328L9.0835 23.5361L15.2077 27.0725Z" fill="#AAAAAA"/>
<path opacity="0.5" fill-rule="evenodd" clip-rule="evenodd" d="M29.6417 28.3328L15.2075 36.6667V27.0725L21.3336 23.5362L29.6417 28.3328Z" fill="#AAAAAA"/>
<path opacity="0.4" fill-rule="evenodd" clip-rule="evenodd" d="M29.6436 21.6256V28.3329L21.3354 23.5362V21.6256H29.6436Z" fill="#AAAAAA"/>
<path d="M52.3145 21.7624C51.662 25.6099 49.187 27.8599 45.362 27.8599C40.637 27.8599 37.667 24.2599 37.667 19.5349C37.667 14.7874 40.637 11.1649 45.362 11.1649C49.052 11.1649 51.5495 13.3249 52.247 17.0149L48.6695 17.1724C48.287 15.1924 47.072 14.0674 45.2945 14.0674C42.482 14.0674 41.1995 16.4299 41.1995 19.5349C41.1995 22.6174 42.5045 24.9574 45.2945 24.9574C47.1395 24.9574 48.377 23.7424 48.7145 21.6049L52.3145 21.7624Z" fill="#AAAAAA"/>
<path d="M53.2936 19.2649C53.7661 16.7224 55.7236 15.3049 58.8511 15.3049C62.4736 15.3049 64.3411 17.0824 64.3411 20.5024V24.2374C64.3411 25.0249 64.6561 25.1824 65.0836 25.1824H65.5336V27.4999L64.9261 27.5224C64.1386 27.5449 61.8211 27.7699 61.4836 25.6999C60.9211 26.9149 59.5486 27.7699 57.3886 27.7699C54.9811 27.7699 53.1136 26.4649 53.1136 24.3724C53.1136 22.1449 54.7561 21.3124 57.6361 20.7274L60.9211 20.0749C60.8986 18.3424 60.2236 17.5324 58.8511 17.5324C57.7036 17.5324 56.9836 18.1624 56.7136 19.4449L53.2936 19.2649ZM56.6011 24.2374C56.6011 24.9799 57.2311 25.5649 58.4461 25.5649C59.9086 25.5649 60.9661 24.4624 60.9661 22.3249V22.1899L58.9861 22.5499C57.6136 22.8199 56.6011 23.0224 56.6011 24.2374Z" fill="#AAAAAA"/>
<path d="M66.7293 11.5249H70.1493V24.0349C70.1493 24.6199 70.4643 24.9574 71.0493 24.9574H71.9043V27.4999H70.0593C68.0793 27.4999 66.7293 26.3074 66.7293 24.1699V11.5249Z" fill="#AAAAAA"/>
<path d="M72.4513 21.5374C72.4513 17.7574 74.8813 15.3049 78.5713 15.3049C81.8563 15.3049 84.4213 17.5774 84.3988 21.7849V22.4149H76.0063C76.0963 24.1924 77.0413 25.2499 78.5713 25.2499C79.5613 25.2499 80.4388 24.6874 80.8213 23.7649L84.2413 24.0124C83.5213 26.3299 81.2938 27.7699 78.5713 27.7699C74.8813 27.7699 72.4513 25.3174 72.4513 21.5374ZM76.0288 20.3674H80.9563C80.7763 18.5674 79.7413 17.8249 78.5713 17.8249C77.1313 17.8249 76.2088 18.7924 76.0288 20.3674Z" fill="#AAAAAA"/>
<path d="M92.9792 19.4449C92.7992 18.3424 91.8542 17.6674 90.8192 17.6674C89.8067 17.6674 89.0192 18.2074 89.0642 19.0624C89.1092 19.9399 90.1217 20.3224 91.2467 20.5024C94.7567 21.0649 96.4892 21.9874 96.4892 24.2374C96.4892 26.6224 94.2392 27.7699 91.1792 27.7699C87.6917 27.7699 85.4642 26.2624 85.2842 23.7199L88.7042 23.5399C88.9067 24.6874 89.7392 25.3849 91.1117 25.3849C91.9667 25.3849 93.0017 25.0249 93.0017 24.1699C92.9792 23.1574 91.8317 22.9774 90.6842 22.7299C87.3992 22.0999 85.5542 21.2899 85.5542 19.0849C85.5542 16.6999 87.5567 15.2824 90.9542 15.2824C93.9692 15.2824 95.9942 16.8124 96.3992 19.3099L92.9792 19.4449Z" fill="#AAAAAA"/>
<path d="M105.83 20.1424C105.628 18.7024 104.683 17.9149 103.49 17.9149C101.803 17.9149 100.858 19.2424 100.858 21.5374C100.858 23.8324 101.803 25.1599 103.49 25.1599C104.75 25.1599 105.673 24.3724 105.875 22.8199L109.385 22.9549C109.07 25.9249 106.663 27.7699 103.49 27.7699C99.8 27.7699 97.37 25.3174 97.37 21.5374C97.37 17.7574 99.8 15.3049 103.49 15.3049C106.573 15.3049 109.003 17.0824 109.318 19.9849L105.83 20.1424Z" fill="#AAAAAA"/>
<path d="M110.005 21.5374C110.005 17.7574 112.435 15.3049 116.125 15.3049C119.41 15.3049 121.975 17.5774 121.953 21.7849V22.4149H113.56C113.65 24.1924 114.595 25.2499 116.125 25.2499C117.115 25.2499 117.993 24.6874 118.375 23.7649L121.795 24.0124C121.075 26.3299 118.848 27.7699 116.125 27.7699C112.435 27.7699 110.005 25.3174 110.005 21.5374ZM113.583 20.3674H118.51C118.33 18.5674 117.295 17.8249 116.125 17.8249C114.685 17.8249 113.763 18.7924 113.583 20.3674Z" fill="#AAAAAA"/>
<path d="M123.225 15.5749H126.285L126.375 17.4874C127.028 15.9124 128.355 15.3049 129.93 15.3049C132.54 15.3049 134.048 17.0599 134.048 19.8274V27.4999H130.65V20.9524C130.65 19.0624 130.223 18.0049 128.828 18.0049C127.388 18.0049 126.645 19.0624 126.645 20.9524V27.4999H123.225V15.5749Z" fill="#AAAAAA"/>
<path d="M143.67 20.1424C143.467 18.7024 142.522 17.9149 141.33 17.9149C139.642 17.9149 138.697 19.2424 138.697 21.5374C138.697 23.8324 139.642 25.1599 141.33 25.1599C142.59 25.1599 143.512 24.3724 143.715 22.8199L147.225 22.9549C146.91 25.9249 144.502 27.7699 141.33 27.7699C137.64 27.7699 135.21 25.3174 135.21 21.5374C135.21 17.7574 137.64 15.3049 141.33 15.3049C144.412 15.3049 146.842 17.0824 147.157 19.9849L143.67 20.1424Z" fill="#AAAAAA"/>
<path d="M147.845 21.5374C147.845 17.7574 150.275 15.3049 153.965 15.3049C157.25 15.3049 159.815 17.5774 159.792 21.7849V22.4149H151.4C151.49 24.1924 152.435 25.2499 153.965 25.2499C154.955 25.2499 155.832 24.6874 156.215 23.7649L159.635 24.0124C158.915 26.3299 156.687 27.7699 153.965 27.7699C150.275 27.7699 147.845 25.3174 147.845 21.5374ZM151.422 20.3674H156.35C156.17 18.5674 155.135 17.8249 153.965 17.8249C152.525 17.8249 151.602 18.7924 151.422 20.3674Z" fill="#AAAAAA"/>
</svg>
