<svg width="124" height="32" viewBox="0 0 124 32" fill="none" xmlns="http://www.w3.org/2000/svg">
<g filter="url(#filter0_iii_7893_121728)">
<g clip-path="url(#clip0_7893_121728)">
<rect width="32" height="32" rx="8" fill="#1570EF"/>
<rect width="32" height="32" fill="url(#paint0_linear_7893_121728)"/>
<path d="M8 7H24.7514L23.375 11.2659H8V7Z" fill="white"/>
<path d="M18.5087 11.2661L18.5087 25.0002L14.2428 25.0002L14.2428 13.9713L18.5087 11.2661Z" fill="#D2D1FF"/>
</g>
<rect x="0.666667" y="0.666667" width="30.6667" height="30.6667" rx="7.33333" stroke="url(#paint1_linear_7893_121728)" stroke-width="1.33333"/>
</g>
<path d="M41.6392 12.1911V9.90909H52.3906V12.1911H48.3828V23H45.647V12.1911H41.6392ZM55.0339 23.1854C54.4074 23.1854 53.8492 23.0767 53.3591 22.8594C52.8691 22.6378 52.4813 22.3118 52.1958 21.8814C51.9145 21.4467 51.7739 20.9055 51.7739 20.2578C51.7739 19.7124 51.8741 19.2543 52.0743 18.8835C52.2746 18.5128 52.5474 18.2145 52.8925 17.9886C53.2377 17.7628 53.6297 17.5923 54.0687 17.4773C54.5118 17.3622 54.9763 17.2812 55.4621 17.2344C56.0332 17.1747 56.4934 17.1193 56.8428 17.0682C57.1922 17.0128 57.4458 16.9318 57.6035 16.8253C57.7611 16.7187 57.84 16.5611 57.84 16.3523V16.3139C57.84 15.9091 57.7121 15.5959 57.4564 15.3743C57.205 15.1527 56.8471 15.0419 56.3826 15.0419C55.8925 15.0419 55.5026 15.1506 55.2128 15.3679C54.9231 15.581 54.7313 15.8494 54.6376 16.1733L52.1191 15.9688C52.2469 15.3722 52.4984 14.8565 52.8734 14.4219C53.2484 13.983 53.732 13.6463 54.3243 13.4119C54.9209 13.1733 55.6113 13.054 56.3954 13.054C56.9408 13.054 57.4628 13.1179 57.9614 13.2457C58.4643 13.3736 58.9096 13.5717 59.2974 13.8402C59.6894 14.1087 59.9984 14.4538 60.2242 14.8757C60.4501 15.2933 60.563 15.794 60.563 16.3778V23H57.9806V21.6385H57.9039C57.7462 21.9453 57.5353 22.2159 57.2711 22.4503C57.0069 22.6804 56.6894 22.8615 56.3187 22.9936C55.9479 23.1214 55.5197 23.1854 55.0339 23.1854ZM55.8137 21.3061C56.2143 21.3061 56.568 21.2273 56.8748 21.0696C57.1816 20.9077 57.4224 20.6903 57.5971 20.4176C57.7718 20.1449 57.8591 19.8359 57.8591 19.4908V18.4489C57.7739 18.5043 57.6567 18.5554 57.5076 18.6023C57.3627 18.6449 57.1986 18.6854 57.0154 18.7237C56.8322 18.7578 56.6489 18.7898 56.4657 18.8196C56.2824 18.8452 56.1163 18.8686 55.9671 18.8899C55.6475 18.9368 55.3684 19.0114 55.1297 19.1136C54.8911 19.2159 54.7057 19.3544 54.5736 19.5291C54.4415 19.6996 54.3755 19.9126 54.3755 20.1683C54.3755 20.5391 54.5097 20.8224 54.7782 21.0185C55.0509 21.2102 55.3961 21.3061 55.8137 21.3061ZM70.3046 15.9815L67.8117 16.1349C67.7691 15.9219 67.6775 15.7301 67.5368 15.5597C67.3962 15.3849 67.2108 15.2464 66.9807 15.1442C66.7549 15.0376 66.4843 14.9844 66.1689 14.9844C65.7471 14.9844 65.3912 15.0739 65.1015 15.2528C64.8117 15.4276 64.6668 15.6619 64.6668 15.956C64.6668 16.1903 64.7606 16.3885 64.9481 16.5504C65.1356 16.7124 65.4573 16.8423 65.9133 16.9403L67.6902 17.2983C68.6448 17.4943 69.3564 17.8097 69.8252 18.2443C70.2939 18.679 70.5283 19.25 70.5283 19.9574C70.5283 20.6009 70.3387 21.1655 69.9594 21.6513C69.5844 22.1371 69.0688 22.5163 68.4125 22.7891C67.7606 23.0575 67.0084 23.1918 66.1562 23.1918C64.8564 23.1918 63.8209 22.9212 63.0496 22.38C62.2826 21.8345 61.833 21.093 61.7009 20.1555L64.3792 20.0149C64.4601 20.4112 64.6562 20.7138 64.9672 20.9226C65.2783 21.1271 65.6767 21.2294 66.1625 21.2294C66.6398 21.2294 67.0233 21.1378 67.3131 20.9545C67.6071 20.767 67.7563 20.5263 67.7606 20.2322C67.7563 19.9851 67.6519 19.7827 67.4473 19.625C67.2428 19.4631 66.9275 19.3395 66.5013 19.2543L64.801 18.9155C63.8422 18.7237 63.1285 18.3913 62.6597 17.9183C62.1952 17.4453 61.963 16.8423 61.963 16.1094C61.963 15.4787 62.1334 14.9354 62.4743 14.4794C62.8195 14.0234 63.3032 13.6719 63.9253 13.4247C64.5517 13.1776 65.2847 13.054 66.1242 13.054C67.3642 13.054 68.3401 13.3161 69.0517 13.8402C69.7677 14.3643 70.1853 15.0781 70.3046 15.9815ZM74.1703 20.1747L74.1767 16.9084H74.573L77.7179 13.1818H80.8436L76.6185 18.1165H75.9729L74.1703 20.1747ZM71.703 23V9.90909H74.426V23H71.703ZM77.8393 23L74.9501 18.7237L76.7655 16.7997L81.029 23H77.8393ZM84.6374 23L80.8917 9.90909H83.9151L86.082 19.005H86.1907L88.5813 9.90909H91.1701L93.5543 19.0241H93.6694L95.8363 9.90909H98.8597L95.114 23H92.4165L89.9236 14.4411H89.8214L87.3349 23H84.6374ZM99.7499 23V13.1818H102.473V23H99.7499ZM101.118 11.9162C100.713 11.9162 100.366 11.782 100.076 11.5135C99.7904 11.2408 99.6477 10.9148 99.6477 10.5355C99.6477 10.1605 99.7904 9.83878 100.076 9.57031C100.366 9.29758 100.713 9.16122 101.118 9.16122C101.523 9.16122 101.868 9.29758 102.153 9.57031C102.443 9.83878 102.588 10.1605 102.588 10.5355C102.588 10.9148 102.443 11.2408 102.153 11.5135C101.868 11.782 101.523 11.9162 101.118 11.9162ZM112.283 15.9815L109.79 16.1349C109.748 15.9219 109.656 15.7301 109.516 15.5597C109.375 15.3849 109.19 15.2464 108.959 15.1442C108.734 15.0376 108.463 14.9844 108.148 14.9844C107.726 14.9844 107.37 15.0739 107.08 15.2528C106.79 15.4276 106.645 15.6619 106.645 15.956C106.645 16.1903 106.739 16.3885 106.927 16.5504C107.114 16.7124 107.436 16.8423 107.892 16.9403L109.669 17.2983C110.623 17.4943 111.335 17.8097 111.804 18.2443C112.273 18.679 112.507 19.25 112.507 19.9574C112.507 20.6009 112.317 21.1655 111.938 21.6513C111.563 22.1371 111.047 22.5163 110.391 22.7891C109.739 23.0575 108.987 23.1918 108.135 23.1918C106.835 23.1918 105.8 22.9212 105.028 22.38C104.261 21.8345 103.812 21.093 103.68 20.1555L106.358 20.0149C106.439 20.4112 106.635 20.7138 106.946 20.9226C107.257 21.1271 107.655 21.2294 108.141 21.2294C108.618 21.2294 109.002 21.1378 109.292 20.9545C109.586 20.767 109.735 20.5263 109.739 20.2322C109.735 19.9851 109.631 19.7827 109.426 19.625C109.221 19.4631 108.906 19.3395 108.48 19.2543L106.78 18.9155C105.821 18.7237 105.107 18.3913 104.638 17.9183C104.174 17.4453 103.942 16.8423 103.942 16.1094C103.942 15.4787 104.112 14.9354 104.453 14.4794C104.798 14.0234 105.282 13.6719 105.904 13.4247C106.53 13.1776 107.263 13.054 108.103 13.054C109.343 13.054 110.319 13.3161 111.03 13.8402C111.746 14.3643 112.164 15.0781 112.283 15.9815ZM118.156 23.1918C117.146 23.1918 116.277 22.9872 115.548 22.5781C114.824 22.1648 114.265 21.581 113.873 20.8267C113.481 20.0682 113.285 19.1712 113.285 18.1357C113.285 17.1257 113.481 16.2393 113.873 15.4766C114.265 14.7138 114.817 14.1193 115.529 13.6932C116.245 13.267 117.084 13.054 118.047 13.054C118.695 13.054 119.298 13.1584 119.856 13.3672C120.419 13.5717 120.909 13.8807 121.327 14.294C121.748 14.7074 122.077 15.2273 122.311 15.8537C122.545 16.4759 122.662 17.2045 122.662 18.0398V18.7876H114.372V17.1001H120.099C120.099 16.7081 120.014 16.3608 119.844 16.0582C119.673 15.7557 119.437 15.5192 119.134 15.3487C118.836 15.174 118.488 15.0866 118.092 15.0866C117.679 15.0866 117.312 15.1825 116.993 15.3743C116.677 15.5618 116.43 15.8153 116.251 16.1349C116.072 16.4503 115.981 16.8018 115.976 17.1896V18.794C115.976 19.2798 116.066 19.6996 116.245 20.0533C116.428 20.407 116.686 20.6797 117.018 20.8714C117.351 21.0632 117.745 21.1591 118.201 21.1591C118.503 21.1591 118.78 21.1165 119.032 21.0312C119.283 20.946 119.498 20.8182 119.677 20.6477C119.856 20.4773 119.993 20.2685 120.086 20.0213L122.605 20.1875C122.477 20.7926 122.215 21.321 121.819 21.7727C121.427 22.2202 120.92 22.5696 120.297 22.821C119.68 23.0682 118.966 23.1918 118.156 23.1918Z" fill="white"/>
<defs>
<filter id="filter0_iii_7893_121728" x="0" y="-2" width="32" height="36" filterUnits="userSpaceOnUse" color-interpolation-filters="sRGB">
<feFlood flood-opacity="0" result="BackgroundImageFix"/>
<feBlend mode="normal" in="SourceGraphic" in2="BackgroundImageFix" result="shape"/>
<feColorMatrix in="SourceAlpha" type="matrix" values="0 0 0 0 0 0 0 0 0 0 0 0 0 0 0 0 0 0 127 0" result="hardAlpha"/>
<feOffset dy="-2"/>
<feGaussianBlur stdDeviation="1"/>
<feComposite in2="hardAlpha" operator="arithmetic" k2="-1" k3="1"/>
<feColorMatrix type="matrix" values="0 0 0 0 0 0 0 0 0 0 0 0 0 0 0 0 0 0 0.1 0"/>
<feBlend mode="normal" in2="shape" result="effect1_innerShadow_7893_121728"/>
<feColorMatrix in="SourceAlpha" type="matrix" values="0 0 0 0 0 0 0 0 0 0 0 0 0 0 0 0 0 0 127 0" result="hardAlpha"/>
<feOffset dy="2"/>
<feGaussianBlur stdDeviation="1"/>
<feComposite in2="hardAlpha" operator="arithmetic" k2="-1" k3="1"/>
<feColorMatrix type="matrix" values="0 0 0 0 1 0 0 0 0 1 0 0 0 0 1 0 0 0 0.1 0"/>
<feBlend mode="normal" in2="effect1_innerShadow_7893_121728" result="effect2_innerShadow_7893_121728"/>
<feColorMatrix in="SourceAlpha" type="matrix" values="0 0 0 0 0 0 0 0 0 0 0 0 0 0 0 0 0 0 127 0" result="hardAlpha"/>
<feMorphology radius="0.666667" operator="erode" in="SourceAlpha" result="effect3_innerShadow_7893_121728"/>
<feOffset/>
<feComposite in2="hardAlpha" operator="arithmetic" k2="-1" k3="1"/>
<feColorMatrix type="matrix" values="0 0 0 0 0.0627451 0 0 0 0 0.0941176 0 0 0 0 0.156863 0 0 0 0.24 0"/>
<feBlend mode="normal" in2="effect2_innerShadow_7893_121728" result="effect3_innerShadow_7893_121728"/>
</filter>
<linearGradient id="paint0_linear_7893_121728" x1="16" y1="3.97364e-07" x2="17.3333" y2="32" gradientUnits="userSpaceOnUse">
<stop stop-color="white" stop-opacity="0"/>
<stop offset="1" stop-color="white" stop-opacity="0.12"/>
</linearGradient>
<linearGradient id="paint1_linear_7893_121728" x1="16" y1="0" x2="16" y2="32" gradientUnits="userSpaceOnUse">
<stop stop-color="white" stop-opacity="0.12"/>
<stop offset="1" stop-color="white" stop-opacity="0"/>
</linearGradient>
<clipPath id="clip0_7893_121728">
<rect width="32" height="32" rx="8" fill="white"/>
</clipPath>
</defs>
</svg>
